<svg xmlns="http://www.w3.org/2000/svg" width="92" height="92" fill="none" viewBox="0 0 92 92">
  <g clip-path="url(#clip0_1_9)">
    <path fill="#E92B91" d="M23.32 48.59l21.258.126 1.099 17.77-1.983 3.795-3.192 1.28-2.935-1.366-1.094-4.405H21.672l.651-17.074.997-.127z"/>
    <path fill="#F7EC3C" d="M65.813 70.803l-1.118-13 3.913-1.037 1.98-1.864 1.38-3.094-.842-1.957-3.973-1.262-12.187-.554-5.453 1.233-.448 22.294 16.748-.76z"/>
    <path fill="#00ADBF" d="M43.67 43.14l.908-20.391-16.751-.56V36.71l-5.363.558-.792 4.455 4.437 1.416h17.56z"/>
    <path fill="#fff" d="M35.984 29.625s-.911 2.934-1.16 3.04c-.245.104-2.833 2.445-3.114 2.475-.282.03-2.765 0-2.765 0l-2.15-3.942 1.568-3.64h3.346l4.275 2.067zM37.718 59.874s-.908 2.934-1.157 3.04c-.248.104-2.833 2.445-3.114 2.475-.282.03-2.765 0-2.765 0l-2.154-3.944 1.572-3.641h3.346l4.272 2.07z"/>
    <path fill="#F47530" d="M71.836 27.154v17.2h-22.77V22.949l5.9-.76 2.201 3.526 14.669 1.44z"/>
    <path fill="#fff" d="M64.789 29.625s-.912 2.934-1.157 3.04c-.249.104-2.836 2.445-3.115 2.475-.282.03-2.764 0-2.764 0l-2.151-3.942 1.568-3.64h3.347l4.272 2.067zM66.357 58.836s-.911 2.934-1.157 3.04c-.248.104-2.833 2.445-3.115 2.475-.281.03-2.764 0-2.764 0l-2.154-3.944 1.572-3.641h3.346l4.272 2.07z"/>
    <g>
      <path fill="#084364" d="M18.952 58.243v9.686h2.22c1.262 0 2.328.433 3.195 1.3.867.864 1.3 1.932 1.3 3.194 0 1.303-.43 2.435-1.289 3.395s-1.927 1.5-3.206 1.612v-5.004h-6.603c-1.391 0-2.41-.412-3.054-1.234-.102-.113-.665-1.201-1.69-3.263h4.573v-9.686h4.554z"/>
      <path fill="#084364" d="M17.016 41.252c.47 0 .909.226 1.32.682.411.455.619.922.619 1.402v21.979L14.4 62.6V58.05a10.834 10.834 0 01-4.943-2.258 11.077 11.077 0 01-3.292-4.342c-1.643 0-2.838-.29-3.587-.872-.199-.152-1.06-1.16-2.579-3.017h6.089c.077-2.098.922-3.71 2.543-4.837 1.428-.985 3.25-1.48 5.465-1.48h2.919v.01zm-2.615 10.183h-3.833c.456.917.956 1.56 1.5 1.93.494.328 1.27.604 2.336.82v-2.75H14.4zm-.856-6.351c-.972 0-1.665.173-2.077.521-.411.348-.71 1.002-.9 1.963h3.833v-2.446a10.675 10.675 0 00-.856-.038zM25.441 67.363H19.56V41.495c.867.558 1.732 1.113 2.585 1.67.856.71 1.284 1.56 1.284 2.559v17.087h2.01v4.552h.003z"/>
      <path fill="#084364" d="M45.707 67.363c0 1.557-.547 2.91-1.64 4.069-1.093 1.157-2.41 1.736-3.954 1.736-1.632 0-3-.563-4.098-1.686-1.1-1.124-1.624-2.496-1.574-4.116H22.727l2.714-4.552h.804c.024-2.451.997-4.544 2.921-6.277.619-.569 1.472-.917 2.56-1.044.975-.113 1.955-.22 2.941-.323 1.212-.265 2.306-.847 3.28-1.744l.078 13.937c0 .569.19 1.046.572 1.433.38.386.85.58 1.41.58.523 0 .956-.208 1.304-.619.35-.411.525-.878.525-1.394v-21.43c0-1.126.489-2.036 1.472-2.73l2.397-1.705v25.865h.002zm-11.46-4.552v-3.45a3.256 3.256 0 00-1.074-.19c-.884 0-1.654.328-2.317.985-.66.657-.966 1.416-.914 2.277v.378h4.305zM50.178 71.09H46.31V45.934c0-1.024.428-1.908 1.284-2.656.867-.593 1.732-1.187 2.585-1.783V71.09z"/>
      <g>
        <path fill="#084364" d="M73.048 33.758V24.07h-2.22c-1.265 0-2.33-.433-3.198-1.3-.867-.867-1.3-1.932-1.3-3.197 0-1.3.43-2.434 1.292-3.395.859-.96 1.927-1.499 3.206-1.612v5.007h6.603c1.389 0 2.408.412 3.054 1.234.1.113.663 1.201 1.687 3.26H77.6v9.687h-4.55v.002z"/>
        <path fill="#084364" d="M74.981 50.745c-.47 0-.908-.226-1.32-.682-.411-.455-.615-.922-.615-1.402V26.68l4.553 2.713v4.552a10.848 10.848 0 014.943 2.258 11.031 11.031 0 013.292 4.342c1.64 0 2.836.29 3.584.873.202.154 1.063 1.16 2.58 3.017h-6.09c-.074 2.098-.922 3.71-2.543 4.833-1.428.986-3.25 1.48-5.465 1.48h-2.919v-.003zm2.62-10.183h3.831c-.456-.916-.955-1.56-1.5-1.93-.494-.328-1.27-.604-2.333-.82v2.75h.003zm.854 6.355c.972 0 1.668-.174 2.077-.522.411-.348.71-1.002.9-1.963h-3.83v2.446c.3.025.585.038.853.038zM66.559 24.637h5.882v25.865a860.662 860.662 0 01-2.585-1.667c-.856-.71-1.284-1.562-1.284-2.562V29.186h-2.01v-4.549h-.003z"/>
        <path fill="#084364" d="M46.293 24.637c0-1.557.547-2.91 1.64-4.069 1.094-1.157 2.413-1.736 3.957-1.736 1.63 0 2.996.563 4.098 1.686 1.1 1.127 1.627 2.496 1.574 4.116h11.711l-2.714 4.552h-.804c-.024 2.451-1 4.544-2.918 6.277-.62.572-1.475.917-2.563 1.044-.972.113-1.955.22-2.938.323-1.215.265-2.309.847-3.284 1.744l-.077-13.937c0-.569-.19-1.046-.572-1.433a1.921 1.921 0 00-1.41-.58c-.525 0-.959.208-1.307.616a2.107 2.107 0 00-.525 1.394v21.43c0 1.126-.491 2.037-1.471 2.73l-2.4 1.706V24.636h.003zm11.457 4.55v3.45c.364.127.723.19 1.077.19.88 0 1.654-.328 2.314-.985.663-.66.967-1.416.914-2.278v-.378H57.75zM41.82 20.91h3.868v25.156c0 1.024-.428 1.908-1.284 2.653-.867.594-1.732 1.187-2.585 1.783V20.91z"/>
      </g>
      <g>
        <path fill="#084364" d="M34.084 18.812l-9.69-.118-.024 2.22c-.017 1.263-.462 2.323-1.34 3.18-.878.855-1.95 1.274-3.214 1.26-1.303-.016-2.427-.46-3.38-1.33-.95-.872-1.472-1.946-1.574-3.224l5.01.063.082-6.6c.017-1.391.44-2.401 1.268-3.039.116-.1 1.212-.649 3.283-1.648l-.055 4.571 9.69.119-.056 4.546z"/>
        <path fill="#084364" d="M51.103 17.087c-.005.47-.237.906-.699 1.309-.46.405-.933.604-1.413.599l-21.984-.268 2.77-4.519 4.553.055a10.821 10.821 0 012.317-4.91 11.054 11.054 0 014.385-3.236c.022-1.642.326-2.835.917-3.572.155-.199 1.17-1.049 3.049-2.542l-.075 6.087c2.096.102 3.7.969 4.805 2.6.97 1.438 1.439 3.268 1.411 5.48l-.036 2.917zm-10.154-2.74l.047-3.832c-.922.444-1.571.935-1.947 1.474-.336.488-.618 1.261-.847 2.321l2.747.036zm6.365-.78c.011-.971-.154-1.667-.497-2.08-.342-.415-.994-.724-1.952-.925l-.047 3.831 2.447.03c.03-.303.047-.588.05-.855zM24.883 25.186l.072-5.877 25.872.318c-.566.861-1.132 1.714-1.698 2.564-.721.848-1.58 1.265-2.577 1.254l-17.093-.21-.022 2.01-4.554-.059z"/>
        <path fill="#084364" d="M24.635 45.445c-1.555-.02-2.905-.582-4.049-1.69-1.143-1.106-1.706-2.431-1.687-3.974.02-1.632.6-2.99 1.74-4.075 1.138-1.085 2.518-1.592 4.137-1.523l.143-11.705 4.52 2.766-.01.804c2.452.055 4.534 1.054 6.243 2.997.56.627.9 1.483 1.014 2.573.102.975.199 1.957.287 2.945.248 1.215.817 2.317 1.704 3.302l-13.943-.094c-.569-.008-1.046.177-1.439.552-.389.379-.59.845-.596 1.403-.006.521.193.958.6 1.313.405.357.87.536 1.388.542l21.434.262c1.127.014 2.03.516 2.715 1.504l1.676 2.418-25.877-.32zm4.691-11.398l3.452.042c.13-.365.2-.72.202-1.071.014-.884-.31-1.657-.958-2.325-.65-.67-1.406-.982-2.265-.944l-.378-.005-.053 4.303zM20.852 49.87l.047-3.867 25.164.309c1.025.014 1.903.45 2.64 1.317.583.875 1.166 1.742 1.751 2.606l-29.602-.365z"/>
        <g>
          <path fill="#084364" d="M57.913 73.185l9.69.119.027-2.217c.014-1.264.462-2.324 1.34-3.18.878-.853 1.946-1.275 3.211-1.259 1.304.017 2.428.458 3.38 1.33.95.873 1.475 1.947 1.574 3.228l-5.01-.064-.08 6.6c-.016 1.392-.441 2.402-1.27 3.04-.115.099-1.209.648-3.283 1.645l.058-4.569-9.69-.118.053-4.555z"/>
          <path fill="#084364" d="M40.897 74.913c.005-.47.237-.906.699-1.308.46-.406.93-.605 1.41-.6l21.987.268-2.77 4.52-4.553-.056a10.807 10.807 0 01-2.317 4.91 11.042 11.042 0 01-4.385 3.236c-.02 1.642-.326 2.835-.917 3.572-.152.201-1.168 1.049-3.049 2.542l.075-6.087c-2.096-.102-3.7-.968-4.805-2.602-.972-1.442-1.441-3.269-1.414-5.48l.039-2.915zm10.15 2.741l-.043 3.832c.922-.445 1.571-.936 1.944-1.475.337-.488.621-1.261.85-2.321l-2.75-.036zm-6.364.776c-.011.971.154 1.667.497 2.081.342.417.994.723 1.952.928l.047-3.832-2.447-.03c-.027.3-.044.585-.05.853zM67.12 66.811l-.072 5.877-25.875-.317c.566-.862 1.135-1.717 1.701-2.565.72-.847 1.58-1.264 2.576-1.253l17.091.21.025-2.01 4.553.058z"/>
          <path fill="#084364" d="M67.365 46.555c1.555.02 2.905.582 4.051 1.69 1.144 1.106 1.704 2.431 1.688 3.974-.02 1.632-.6 2.99-1.74 4.075-1.138 1.087-2.519 1.593-4.137 1.524l-.143 11.704-4.518-2.766.008-.803c-2.452-.056-4.534-1.055-6.243-2.998-.564-.627-.898-1.483-1.011-2.573-.102-.974-.199-1.954-.287-2.945-.252-1.215-.82-2.316-1.704-3.302l13.942.097c.572.005 1.05-.177 1.44-.555.391-.378.587-.845.598-1.402.003-.522-.196-.958-.602-1.314a2.081 2.081 0 00-1.386-.541l-21.434-.266c-1.127-.013-2.03-.516-2.715-1.504l-1.676-2.418 25.87.323zm-4.694 11.398l-3.452-.042a3.26 3.26 0 00-.202 1.071c-.01.884.31 1.657.959 2.328.649.67 1.405.982 2.264.944l.378.005.053-4.306zM71.148 42.13l-.047 3.867-25.164-.309c-1.025-.014-1.903-.45-2.64-1.317a388.396 388.396 0 00-1.751-2.605l29.602.364z"/>
        </g>
      </g>
    </g>
  </g>
  <defs>
    <clipPath id="clip0_1_9">
      <path fill="#fff" d="M0 0h92v92H0z"/>
    </clipPath>
  </defs>
</svg>
